<svg version="1.1" xmlns="http://www.w3.org/2000/svg" xmlns:xlink="http://www.w3.org/1999/xlink" width="1062" height="219" viewBox="0 0 1062.11 219.41"><style>.cls-1,.cls-2{fill:#af0b1c;}.cls-1{fill-rule:evenodd;}</style><g id="Layer_1-2"><path class="cls-1" d="M14.08,32.27,59.65,3.91l.19-.19a28.88,28.88,0,0,1,28.36,0l.19.19L134,32.27A28.4,28.4,0,0,1,148,56.71V162.9A28.66,28.66,0,0,1,134,187.34L88.39,215.5l-.19.2a29,29,0,0,1-28.36,0l-.19-.2L14.08,187.34A28.67,28.67,0,0,1,0,162.9V56.71A28.41,28.41,0,0,1,14.08,32.27m1.76,2.93L61.41,6.85h.19a24.83,24.83,0,0,1,24.84,0h.19L132,35.2a25,25,0,0,1,12.52,21.51V162.9A24.65,24.65,0,0,1,132,184.21L86.63,212.57h-.19a24.89,24.89,0,0,1-24.84,0h-.19L15.84,184.21A24.48,24.48,0,0,1,3.52,162.9V56.71A24.81,24.81,0,0,1,15.84,35.2"/><path class="cls-2" d="M128.87,40.68,83.31,12.32a19.8,19.8,0,0,0-9.39-2.54,20.44,20.44,0,0,0-9.39,2.54L19.16,40.68a18.32,18.32,0,0,0-9.38,16V162.9a18.27,18.27,0,0,0,9.38,15.84l45.37,28.35a18.36,18.36,0,0,0,9.39,2.54,17.85,17.85,0,0,0,9.39-2.54l45.56-28.35a18.49,18.49,0,0,0,9.19-15.84V56.71A18.54,18.54,0,0,0,128.87,40.68Zm-14,79.53H108.2l-4.91,4.46V162.3l4.29,4.45h7.26v1.69H77.37v-1.69h8L90,162.3V125.24c0-1.87-.37-2.81-1.1-2.81a1.24,1.24,0,0,0-1,.64,5.53,5.53,0,0,0-1.09,1.74L69.61,168.44H68.52L48.16,123.6a1.21,1.21,0,0,0-1.24-.85c-.73,0-1.1.46-1.1,1.38v34.52l7,8.1h6.09v1.69H31.09v-1.69H37l6.6-8.11V124.08a10.33,10.33,0,0,0-.31-2.59c-.35-.78-1.33-1.2-3-1.28H31.09v-1.68H60l14,31.1h.73l12.6-31.1h27.5Zm2-42H109.5l-5.22,4.49V95.28a9.41,9.41,0,0,0,.93,3.67l-.68.69c-.56-.65-1.66-1-3.28-1a21.94,21.94,0,0,0-5.21.75c-2.08.45-4.36,1.07-6.85,1.83A61.07,61.07,0,0,1,71.92,104q-17-.41-25.47-8.85Q37.74,87,37.73,77,38,61.83,49.22,54.3a42.38,42.38,0,0,1,24.45-7.41A41.31,41.31,0,0,1,86.41,49a32.94,32.94,0,0,0,9.16,2.1,6.15,6.15,0,0,0,2.78-.57,5.71,5.71,0,0,0,2-1,12.13,12.13,0,0,0,2.32-2.67h1.28V69.56h-1.4c-1.17-2.07-2.49-4.33-4-6.75a54.28,54.28,0,0,0-5.65-6.76,25.16,25.16,0,0,0-7.75-5.31,27.32,27.32,0,0,0-10.92-2q-7.41.12-11.71,3.06a18.32,18.32,0,0,0-6.22,7.83A29.71,29.71,0,0,0,53.88,69a71.36,71.36,0,0,0-.62,8.64,66.26,66.26,0,0,0,.62,9.22,22.84,22.84,0,0,0,2.66,7.89,14.83,14.83,0,0,0,6.34,5.3q4.07,2.13,11.14,2.13a32.18,32.18,0,0,0,9.38-1.56,18.53,18.53,0,0,0,4.3-2.13,4.86,4.86,0,0,0,2.1-2.71V82.58L85.72,78.2H77.24V76.38h39.58Z"/><path class="cls-2" d="M257.4,88.59c-5.24-3.43-10.91-5.14-20.54-5.14-17.22,0-28.67,12.52-28.67,29.21,0,17.55,12.62,29.21,28.14,29.21a42.86,42.86,0,0,0,12-1.29V117.9H232.58v-8.77H259V148c-4.07,1.39-11.13,3.31-22.79,3.31-23.65,0-39.37-15.19-39.37-38.94,0-23,16.69-38.31,39.48-38.31,10.91,0,15.72,1.61,21.93,3.75Z"/><path class="cls-2" d="M274,99.28a34.8,34.8,0,0,1,18-5.13c15.63,0,21.94,7.7,21.94,22.58V139.3a84.7,84.7,0,0,0,.43,10.7h-9.42v-7.06h-.21a20.26,20.26,0,0,1-16.91,8.34c-11.77,0-20-5.13-20-17,0-13.69,15-18,25.36-18,4,0,6.74,0,10.7.21,0-9.41-3.42-14.23-13.48-14.23a25.7,25.7,0,0,0-15.84,5.56ZM303.82,124c-2.14,0-4.28-.21-6.42-.21-5.46,0-18.94.85-18.94,10.48,0,5.78,5.57,8.88,10.17,8.88,9.95,0,15.19-6.2,15.19-14.33Z"/><path class="cls-2" d="M326,69.75h10.06V150H326Z"/><path class="cls-2" d="M347.78,69.75h10.06V150H347.78Z"/><path class="cls-2" d="M371.62,99.28a34.8,34.8,0,0,1,18-5.13c15.62,0,21.94,7.7,21.94,22.58V139.3A87.78,87.78,0,0,0,412,150h-9.41v-7.06h-.22a20.22,20.22,0,0,1-16.9,8.34c-11.77,0-20-5.13-20-17,0-13.69,15-18,25.36-18,4,0,6.74,0,10.7.21,0-9.41-3.42-14.23-13.48-14.23a25.7,25.7,0,0,0-15.84,5.56ZM401.47,124c-2.14,0-4.28-.21-6.42-.21-5.46,0-18.94.85-18.94,10.48,0,5.78,5.57,8.88,10.17,8.88,10,0,15.19-6.2,15.19-14.33Z"/><path class="cls-2" d="M423,95.43h9.74v8.67H433c3-6.21,10.27-9.95,17.87-9.95,14.12,0,20.43,8.77,20.43,23.43V150h-10V121.75c0-12.73-2.78-18.93-11.56-19.47-11.45,0-16.58,9.2-16.58,22.47V150H423Z"/><path class="cls-2" d="M511.85,103.57H497.41v29.85c0,6.31,3.85,9.73,8.45,9.73a12.48,12.48,0,0,0,6.85-1.92v8.56a31.63,31.63,0,0,1-8.56,1.49c-10.38,0-16.8-4.92-16.8-15.83V103.57H475V95.43h12.31V82.81l10.06-3.21V95.43h14.44Z"/><path class="cls-2" d="M549.94,75.32H567.6L591,137.38l23-62.06h17.66V150H621V85.38h-.22L596.06,150H585.57L560.86,85.38h-.22V150h-10.7Z"/><path class="cls-2" d="M647.33,99.28a34.81,34.81,0,0,1,18-5.13c15.62,0,21.93,7.7,21.93,22.58V139.3a84.7,84.7,0,0,0,.43,10.7h-9.42v-7.06H678a20.23,20.23,0,0,1-16.91,8.34c-11.77,0-20-5.13-20-17,0-13.69,15-18,25.35-18,4,0,6.74,0,10.7.21,0-9.41-3.42-14.23-13.48-14.23a25.65,25.65,0,0,0-15.83,5.56ZM677.18,124c-2.14,0-4.28-.21-6.42-.21-5.45,0-18.93.85-18.93,10.48,0,5.78,5.56,8.88,10.16,8.88,10,0,15.19-6.2,15.19-14.33Z"/><path class="cls-2" d="M734,104.64a29,29,0,0,0-10.91-2.36c-11.24,0-17.55,10.06-17.55,20.44,0,9.73,5.24,20.43,18.19,20.43a21.07,21.07,0,0,0,10.81-3.1l.74,9c-4.17,1.92-9,2.24-12.62,2.24-16.48,0-27.82-12.94-27.82-28.56,0-16.59,11.13-28.57,27.82-28.57a37.62,37.62,0,0,1,12.2,2.14Z"/><path class="cls-2" d="M744.24,75.32h22c22.15,0,39.8,13.69,39.8,36.7,0,25-15.19,38-39.8,38h-22Zm10.7,65.26h11.23c18.41,0,28.57-8.88,28.57-28.13,0-17.44-11.87-27.72-27.28-27.72H754.94Z"/><path class="cls-2" d="M840.27,94.15c16.58,0,27.71,12,27.71,28.57,0,15.62-11.34,28.56-27.71,28.56s-27.82-12.94-27.82-28.56C812.45,106.13,823.58,94.15,840.27,94.15Zm0,49c11.77,0,17-10.7,17-20.43,0-10.38-6.31-20.44-17-20.44s-17.12,10.06-17.12,20.44C823.15,132.45,828.39,143.15,840.27,143.15Z"/><path class="cls-2" d="M876.49,95.43h9.74v8.67h.21c3-6.21,10.27-9.95,17.87-9.95,14.12,0,20.43,8.77,20.43,23.43V150h-10V121.75c0-12.73-2.78-18.93-11.56-19.47-11.45,0-16.58,9.2-16.58,22.47V150H876.49Z"/><path class="cls-2" d="M938.74,99.28a34.81,34.81,0,0,1,18-5.13c15.62,0,21.93,7.7,21.93,22.58V139.3a84.7,84.7,0,0,0,.43,10.7h-9.42v-7.06h-.21a20.25,20.25,0,0,1-16.91,8.34c-11.77,0-20-5.13-20-17,0-13.69,15-18,25.35-18,4,0,6.74,0,10.7.21,0-9.41-3.42-14.23-13.48-14.23a25.65,25.65,0,0,0-15.83,5.56ZM968.59,124c-2.14,0-4.28-.21-6.42-.21-5.45,0-18.93.85-18.93,10.48,0,5.78,5.56,8.88,10.16,8.88,10,0,15.19-6.2,15.19-14.33Z"/><path class="cls-2" d="M990.76,69.75h10.06V150H990.76Z"/><path class="cls-2" d="M1052.48,142.3h-.21c-2.68,4.06-8.88,9-18.62,9-16.48,0-23.43-14.65-23.43-29.53,0-14.65,7.7-27.6,23.54-27.6,9.52,0,15,3.74,18.08,8.77h.21V69.75h10.06V150h-9.63Zm-16.48.85c11.34,0,16-11.23,16-20.33,0-10.16-5.24-20.54-16.15-20.54s-15.2,10.27-15,20.22C1020.7,131.06,1025.2,143.15,1036,143.15Z"/></g></svg>